PathFileType	4	(X/Y/Z)	\\Move.snu.ac.kr\motion\Animal\091204_091205_Bird\091205_bird\Project 2\Capture day 2\Session 1\pigeon_008.trc
DataRate	CameraRate	NumFrames	NumMarkers	Units	OrigDataRate	OrigDataStartFrame	OrigNumFrames
240.0	240.0	8	14	mm	240.0	81	3164
Frame#	Time	14MarkersBird:Head			14MarkersBird:C_back			14MarkersBird:Spine			14MarkersBird:L-shoulder			14MarkersBird:L-elbow			14MarkersBird:L-wrist			14MarkersBird:L-hand			14MarkersBird:R-shoulder			14MarkersBird:R-elbow			14MarkersBird:R-Wrist			14MarkersBird:R-hand			14MarkersBird:C_Tail			14MarkersBird:L-Tale			14MarkersBird:R-Tale			
		X1	Y1	Z1	X2	Y2	Z2	X3	Y3	Z3	X4	Y4	Z4	X5	Y5	Z5	X6	Y6	Z6	X7	Y7	Z7	X8	Y8	Z8	X9	Y9	Z9	X10	Y10	Z10	X11	Y11	Z11	X12	Y12	Z12	X13	Y13	Z13	X14	Y14	Z14	

2125	8.850	-437.11456	516.08105	1870.11169	-498.42319	505.43015	1854.95105	-547.36884	480.07971	1847.24121	-462.84201	504.83026	1836.73914	-486.04254	490.31927	1813.33032	-444.49243	499.54037	1820.46460	-424.28372	486.93549	1832.61890	-469.96054	499.89661	1885.17639	-493.91257	488.87985	1900.66785	-455.72311	492.71585	1902.20520	-422.97995	471.48190	1898.90869	-623.83234	386.61179	1821.88940	-555.20245	428.20044	1753.77734	-580.87579	399.48090	1926.13538	
2126	8.854	-432.29630	514.18701	1871.76794	-493.84488	503.83801	1857.08325	-543.10089	478.30286	1849.08179	-459.33728	504.07877	1838.47290	-488.14154	495.21024	1815.59753	-447.06329	508.45886	1816.46606	-425.88895	496.04153	1823.20703	-466.54913	498.76169	1887.08594	-496.75302	492.98132	1900.70764	-458.51068	500.11316	1908.38013	-427.71600	477.53516	1909.39014	-621.75433	388.05502	1822.18945	-550.12280	426.43735	1755.24976	-574.36530	396.66953	1928.40039	
2127	8.858	-427.65204	512.38458	1873.49036	-489.09164	501.87784	1859.22412	-538.76489	476.36908	1850.85522	-455.54590	503.23373	1840.26501	-489.68546	500.34729	1819.82800	-450.49112	517.50525	1814.20850	-429.84961	504.36792	1811.56409	-463.11768	498.07782	1888.68359	-498.29160	498.05936	1898.40173	-462.03024	507.73370	1914.03674	-435.64056	483.35349	1922.69446	-619.75433	389.51840	1822.70215	-544.93854	425.74878	1756.26978	-567.44745	393.66046	1930.34412	
2128	8.863	-423.28357	510.70715	1875.23120	-484.33636	499.79816	1861.42004	-534.37738	474.27444	1852.61890	-451.49408	502.39868	1842.22705	-490.02072	504.48621	1826.18835	-454.23663	526.06537	1815.37231	-437.80338	512.83105	1802.01245	-459.68726	497.88043	1889.76050	-497.53143	502.86923	1893.51282	-465.87238	515.39838	1916.94800	-446.72403	490.75049	1934.82813	-617.48047	390.54663	1823.40552	-539.73254	425.99548	1756.89478	-560.95123	390.83945	1931.91345	
2129	8.867	-419.21436	509.22272	1876.99524	-479.65747	497.86603	1863.70068	-529.98468	472.05292	1854.37537	-447.29840	501.60733	1844.45862	-488.70825	506.94998	1834.05981	-457.47574	533.40332	1820.15808	-448.95160	522.43756	1798.15430	-456.24533	497.83337	1890.43958	-494.42172	506.32175	1887.16382	-469.09180	522.62701	1916.03906	-459.79105	501.24991	1942.39148	-614.94360	391.15283	1824.14441	-534.56610	426.64780	1757.35522	-555.30646	388.28128	1933.21716	
2130	8.871	-415.39536	507.93826	1878.79944	-475.07379	496.23300	1866.05273	-525.63110	469.73911	1856.09546	-443.18600	500.68121	1846.97522	-485.64807	507.80154	1842.28040	-459.45670	539.10175	1827.58850	-460.51114	533.54382	1801.45740	-452.70020	497.42706	1890.90759	-489.49210	508.04047	1881.00964	-470.52277	529.04718	1911.69165	-472.73206	515.05963	1943.30017	-612.40466	391.59409	1824.88989	-529.58838	427.02029	1757.91638	-550.77216	385.97641	1934.42029	
2131	8.875	-411.75870	506.75165	1880.63867	-470.59372	494.88617	1868.42773	-521.33173	467.36902	1857.75818	-439.32254	499.37546	1849.61047	-481.01883	507.76559	1849.65369	-459.74472	543.17908	1836.15027	-469.75458	545.16528	1811.28918	-449.00244	496.29184	1891.37012	-483.20740	508.43796	1876.28333	-469.49554	534.50177	1905.50623	-483.18347	530.65320	1937.14514	-610.04858	392.00101	1825.77026	-525.02075	426.59900	1758.75952	-547.59491	384.00949	1935.61572	
2132	8.879	-408.27722	505.51151	1882.50122	-466.23422	493.70059	1870.75195	-517.09485	465.02960	1859.37549	-435.68350	497.59760	1852.06714	-475.03235	507.64026	1855.33032	-458.20648	545.84052	1844.14148	-474.96021	555.22882	1825.33972	-445.19717	494.29556	1892.07446	-475.94617	508.15219	1873.71594	-466.01959	538.85986	1899.73779	-489.12268	545.60315	1925.61768	-607.89288	392.40100	1826.92273	-520.92700	425.14542	1759.89954	-545.86304	382.47537	1936.73108	
